<svg id="Capa_3" data-name="Capa 3" xmlns="http://www.w3.org/2000/svg" viewBox="0 0 486.29 616.29"><defs><style>.cls-1,.cls-7{fill:#fff;}.cls-2{fill:#44a9e0;}.cls-3{fill:#6aaae4;}.cls-4{fill:#ffe816;}.cls-5{fill:#eee400;}.cls-6{font-size:120px;fill:#1d1d1b;letter-spacing:0em;}.cls-6,.cls-7{font-family:DINCondensed-Bold, DIN Condensed;font-weight:700;}.cls-7{font-size:55px;letter-spacing:0em;}</style></defs><title>Infolog redondo pantone</title><rect class="cls-1" y="243.14" width="486.28" height="131.02"/><path class="cls-2" d="M402.45,346.94v.45l138.32.58c0-.34,0-.68,0-1Z" transform="translate(-54.49 -103.8)"/><path class="cls-3" d="M297.63,242.13A104.82,104.82,0,0,1,402.45,346.94H540.78c0-134.28-108.86-243.14-243.15-243.14C163.69,103.8,55.05,212.11,54.5,345.92l138.32.58A104.81,104.81,0,0,1,297.63,242.13Z" transform="translate(-54.49 -103.8)"/><path class="cls-2" d="M192.83,346.5l-138.32-.58c0,.34,0,.68,0,1H192.82C192.82,346.8,192.83,346.65,192.83,346.5Z" transform="translate(-54.49 -103.8)"/><path class="cls-3" d="M297.64,581.76A104.82,104.82,0,0,1,192.83,476.94H54.5c0,134.29,108.86,243.15,243.14,243.15,134,0,242.58-108.31,243.14-242.12l-138.33-.58A104.8,104.8,0,0,1,297.64,581.76Z" transform="translate(-54.49 -103.8)"/><path class="cls-4" d="M192.83,476.94a104.81,104.81,0,0,0,209.62.45l-104.81-.45Z" transform="translate(-54.49 -103.8)"/><path class="cls-5" d="M402.45,347.39v-.45H297.64Z" transform="translate(-54.49 -103.8)"/><path class="cls-4" d="M297.64,242.13A104.81,104.81,0,0,0,192.83,346.5l104.81.44H402.45A104.81,104.81,0,0,0,297.64,242.13Z" transform="translate(-54.49 -103.8)"/><path class="cls-5" d="M192.83,346.5c0,.15,0,.3,0,.44H297.64Z" transform="translate(-54.49 -103.8)"/><text class="cls-6" transform="translate(23.72 356.87) scale(1.39 1.14)">INFOLOG</text><text class="cls-7" transform="translate(211.69 554.49) scale(1.39 1.14)">AR</text></svg>