<?xml version="1.0" encoding="utf-8"?>
<!-- Generator: Adobe Illustrator 23.0.6, SVG Export Plug-In . SVG Version: 6.00 Build 0)  -->
<svg version="1.1" xmlns="http://www.w3.org/2000/svg" xmlns:xlink="http://www.w3.org/1999/xlink" x="0px" y="0px"
	 viewBox="0 0 595.28 841.89" style="enable-background:new 0 0 595.28 841.89;" xml:space="preserve">
<style type="text/css">
	.st0{fill:none;stroke:#6AAAE4;stroke-width:106;stroke-miterlimit:10;}
	.st1{fill:#FFFFFF;stroke:#FFFFFF;stroke-miterlimit:10;}
	.st2{fill:#F8F7F6;stroke:#FFFFFF;stroke-miterlimit:10;}
	.st3{fill:#FFE816;}
	.st4{fill:#FFFFFF;}
	.st5{font-family:'Arial-Black';}
	.st6{font-size:52.5172px;}
	.st7{fill:none;}
	.st8{display:none;}
	.st9{display:inline;}
	.st10{font-size:73.4009px;}
	.st11{display:inline;fill:#EEE400;}
	.st12{display:inline;fill:none;stroke:#13A9E2;stroke-width:90;stroke-miterlimit:10;}
	.st13{display:inline;fill:#FFFFFF;}
	.st14{font-size:40px;}
	.st15{display:inline;fill:#44A9E0;}
	.st16{display:inline;fill:#6AAAE4;}
	.st17{display:inline;fill:#FFE816;}
	.st18{font-family:'DINCondensed-Bold';}
	.st19{font-size:120px;}
	.st20{font-size:55px;}
	.st21{fill:#44A9E0;}
	.st22{stroke:#FFFFFF;stroke-miterlimit:10;}
	.st23{font-size:120.2524px;}
</style>
<g id="_x32__basicos">
	<path class="st0" d="M105.37,291.2c37.94-56.16,102.19-93.08,175.06-93.08c73.53,0,138.27,37.59,176.07,94.59"/>
	<path class="st1" d="M32.24,375.91h23.98v75.19H32.24V375.91z"/>
	<path class="st1" d="M70.41,375.91h22.35l29.16,41.6v-41.6h22.56v75.19h-22.56l-29-41.28v41.28h-22.5V375.91z"/>
	<path class="st1" d="M157.34,375.91h59.16v16.15h-35.13v13.13h30v15.18h-30v30.72h-24.04V375.91z"/>
	<path class="st2" d="M349.12,375.91h23.93v56.67h37.35v18.51h-61.28V375.91z"/>
	<path class="st2" d="M415.13,413.56c0-12.27,3.52-21.83,10.56-28.67c7.04-6.84,16.85-10.26,29.42-10.26
		c12.89,0,22.82,3.36,29.79,10.08c6.97,6.72,10.46,16.13,10.46,28.23c0,8.79-1.52,15.99-4.57,21.62c-3.05,5.62-7.45,10-13.21,13.13
		c-5.76,3.13-12.93,4.69-21.53,4.69c-8.73,0-15.96-1.35-21.68-4.05c-5.72-2.7-10.36-6.98-13.92-12.82
		C416.91,429.66,415.13,422.35,415.13,413.56z M439.06,413.66c0,7.59,1.45,13.04,4.36,16.36c2.91,3.32,6.86,4.98,11.86,4.98
		c5.14,0,9.12-1.62,11.94-4.87c2.82-3.25,4.22-9.08,4.22-17.49c0-7.08-1.47-12.25-4.41-15.51c-2.94-3.26-6.93-4.9-11.96-4.9
		c-4.83,0-8.7,1.66-11.62,4.97C440.52,400.51,439.06,406,439.06,413.66z"/>
	<path class="st2" d="M544.06,423.87v-15.64h36.98v32.05c-7.08,4.68-13.34,7.87-18.78,9.56c-5.44,1.69-11.89,2.54-19.36,2.54
		c-9.19,0-16.68-1.52-22.48-4.56c-5.79-3.04-10.28-7.57-13.47-13.59c-3.19-6.02-4.78-12.92-4.78-20.72c0-8.21,1.74-15.34,5.23-21.41
		c3.49-6.07,8.59-10.68,15.32-13.82c5.25-2.43,12.31-3.64,21.18-3.64c8.56,0,14.96,0.75,19.2,2.26c4.24,1.51,7.77,3.84,10.57,7
		c2.8,3.16,4.9,7.17,6.31,12.03l-23.08,4c-0.95-2.84-2.56-5.01-4.83-6.51c-2.27-1.5-5.17-2.26-8.69-2.26
		c-5.25,0-9.43,1.77-12.55,5.31c-3.12,3.54-4.68,9.14-4.68,16.8c0,8.14,1.57,13.95,4.73,17.44c3.15,3.49,7.54,5.23,13.18,5.23
		c2.68,0,5.23-0.38,7.66-1.13c2.43-0.75,5.21-2.03,8.35-3.85v-7.08H544.06z"/>
	<circle class="st3" cx="280.94" cy="408.96" r="59.89"/>
	<path class="st0" d="M105.37,525.98c37.94,56.16,102.19,93.08,175.06,93.08c73.53,0,138.27-37.59,176.07-94.59"/>
	<text transform="matrix(0.93 0 0 1 232.3872 627.6677)" class="st4 st5 st6">AR</text>
	<polygon class="st7" points="195.23,417.66 14.24,417.66 14.24,417.66 195.23,417.66 	"/>
</g>
<g id="Capa_2" class="st8">
	<text transform="matrix(1.03 0 0 1.14 101.8398 401.7595)" class="st9 st5 st10">inf</text>
	<text transform="matrix(1.03 0 0 1.14 370.4237 401.7595)" class="st9 st5 st10">log</text>
	<circle class="st11" cx="307.38" cy="374.6" r="58.64"/>
	<path class="st12" d="M308.43,580.56c-82.47,0-149.33-66.86-149.33-149.33"/>
	<path class="st12" d="M457.76,431.23c0,82.47-66.86,149.33-149.33,149.33"/>
	<path class="st12" d="M159.59,316.75c0-82.47,66.86-149.33,149.33-149.33s149.33,66.86,149.33,149.33"/>
	<text transform="matrix(1.03 0 0 1 275.3956 588.3308)" class="st13 st5 st14">ar</text>
</g>
<g id="Capa_3" class="st8">
	<rect x="54.49" y="346.94" class="st13" width="486.28" height="131.02"/>
	<path class="st15" d="M402.45,346.94c0,0.15,0,0.29-0.01,0.44l138.32,0.58c0-0.34,0.01-0.68,0.01-1.02H402.45z"/>
	<path class="st16" d="M297.63,242.13c57.89,0,104.82,46.93,104.82,104.82h138.33c0-134.29-108.86-243.14-243.15-243.14
		c-133.94,0-242.58,108.31-243.13,242.12l138.32,0.58C193.06,288.82,239.89,242.13,297.63,242.13z"/>
	<path class="st15" d="M192.83,346.5l-138.32-0.58c0,0.34-0.01,0.68-0.01,1.02h138.33C192.82,346.8,192.83,346.65,192.83,346.5z"/>
	<path class="st16" d="M297.64,581.76c-57.89,0-104.82-46.93-104.82-104.82H54.5c0,134.29,108.86,243.14,243.14,243.14
		c133.94,0,242.58-108.31,243.13-242.12l-138.32-0.58C402.22,535.07,355.39,581.76,297.64,581.76z"/>
	<path class="st17" d="M192.83,476.94c0,57.89,46.93,104.82,104.82,104.82c57.74,0,104.57-46.69,104.81-104.38l-104.81-0.44H192.83z
		"/>
	<path class="st11" d="M402.45,347.39c0-0.15,0.01-0.29,0.01-0.44H297.64L402.45,347.39z"/>
	<path class="st17" d="M297.64,242.13c-57.74,0-104.57,46.69-104.81,104.38l104.81,0.44h104.82
		C402.45,289.06,355.53,242.13,297.64,242.13z"/>
	<path class="st11" d="M192.83,346.5c0,0.15-0.01,0.29-0.01,0.44h104.82L192.83,346.5z"/>
	<text transform="matrix(1.39 0 0 1.14 78.2162 460.674)" class="st9 st18 st19">infolog</text>
	<text transform="matrix(1.39 0 0 1.14 266.1786 658.293)" class="st13 st18 st20">AR</text>
</g>
<g id="Capa_5" class="st8">
	<rect x="54.49" y="348.57" class="st7" width="486.28" height="131.02"/>
	<path class="st21" d="M402.45,348.57c0,0.15,0,0.29-0.01,0.44l138.32,0.58c0-0.34,0.01-0.68,0.01-1.02H402.45z"/>
	<path class="st22" d="M297.63,243.76c57.89,0,104.82,46.93,104.82,104.82h138.33c0-134.29-108.86-243.14-243.14-243.14
		c-133.94,0-242.58,108.31-243.13,242.12l138.32,0.58C193.06,290.45,239.89,243.76,297.63,243.76z"/>
	<path class="st22" d="M297.64,583.39c-57.89,0-104.82-46.93-104.82-104.82H54.5c0,134.29,108.86,243.14,243.14,243.14
		c133.94,0,242.58-108.31,243.13-242.12l-138.32-0.58C402.22,536.7,355.39,583.39,297.64,583.39z"/>
	<text transform="matrix(1.3871 0 0 1.14 78.3672 462.5469)" class="st18 st23">infolog</text>
	<text transform="matrix(1.39 0 0 1.14 266.1786 659.9194)" class="st4 st18 st20">AR</text>
</g>
<g id="Capa_4" class="st8">
</g>
</svg>
